HIERARCHY
ROOT Hips
{
 OFFSET 0.000000 0.000000 0.000000
 CHANNELS 6 Xposition Yposition Zposition Yrotation Xrotation Zrotation
 JOINT Chest
 {
  OFFSET 0.000000 10.472350 -0.000389
  CHANNELS 3 Yrotation Xrotation Zrotation
  JOINT Chest2
  {
   OFFSET 0.000000 11.551931 0.000707
   CHANNELS 3 Yrotation Xrotation Zrotation
   JOINT Chest3
   {
    OFFSET 0.000000 10.437915 0.000000
    CHANNELS 3 Yrotation Xrotation Zrotation
    JOINT Chest4
    {
     OFFSET 0.000000 10.437915 0.000000
     CHANNELS 3 Yrotation Xrotation Zrotation
     JOINT Neck
     {
      OFFSET 0.000000 14.676306 0.000000
      CHANNELS 3 Yrotation Xrotation Zrotation
      JOINT Head
      {
       OFFSET 0.000000 9.715761 0.001682
       CHANNELS 3 Yrotation Xrotation Zrotation
       End Site
       {
        OFFSET 0.000000 18.584037 0.000879
       }
      }
     }
     JOINT RightCollar
     {
      OFFSET -3.192169 8.189398 0.000000
      CHANNELS 3 Yrotation Xrotation Zrotation
      JOINT RightShoulder
      {
       OFFSET -14.921841 0.000000 0.000000
       CHANNELS 3 Yrotation Xrotation Zrotation
       JOINT RightElbow
       {
        OFFSET 0.000000 -31.895804 0.000000
        CHANNELS 3 Yrotation Xrotation Zrotation
        JOINT RightWrist
        {
         OFFSET 0.000000 -26.087765 0.000000
         CHANNELS 3 Yrotation Xrotation Zrotation
         End Site
         {
          OFFSET 0.000000 -19.509425 0.000000
         }
        }
       }
      }
     }
     JOINT LeftCollar
     {
      OFFSET 3.192169 8.189398 0.000000
      CHANNELS 3 Yrotation Xrotation Zrotation
      JOINT LeftShoulder
      {
       OFFSET 14.921841 0.000000 0.000000
       CHANNELS 3 Yrotation Xrotation Zrotation
       JOINT LeftElbow
       {
        OFFSET 0.000000 -31.895804 0.000000
        CHANNELS 3 Yrotation Xrotation Zrotation
        JOINT LeftWrist
        {
         OFFSET 0.000000 -26.087765 0.000000
         CHANNELS 3 Yrotation Xrotation Zrotation
         End Site
         {
          OFFSET 0.000000 -19.509425 0.000000
         }
        }
       }
      }
     }
    }
   }
  }
 }
 JOINT RightHip
 {
  OFFSET -8.507794 0.001908 0.000195
  CHANNELS 3 Yrotation Xrotation Zrotation
  JOINT RightKnee
  {
   OFFSET 0.000000 -44.002854 -0.000184
   CHANNELS 3 Yrotation Xrotation Zrotation
   JOINT RightAnkle
   {
    OFFSET 0.000000 -43.029750 -0.000312
    CHANNELS 3 Yrotation Xrotation Zrotation
    JOINT RightToe
    {
     OFFSET 0.000000 -7.822577 17.783028
     CHANNELS 3 Yrotation Xrotation Zrotation
     End Site
     {
      OFFSET 0.000000 -1.616737 7.073338
     }
    }
   }
  }
 }
 JOINT LeftHip
 {
  OFFSET 8.507794 0.001908 0.000195
  CHANNELS 3 Yrotation Xrotation Zrotation
  JOINT LeftKnee
  {
   OFFSET 0.000000 -44.002854 -0.000184
   CHANNELS 3 Yrotation Xrotation Zrotation
   JOINT LeftAnkle
   {
    OFFSET 0.000000 -43.029750 -0.000312
    CHANNELS 3 Yrotation Xrotation Zrotation
    JOINT LeftToe
    {
     OFFSET 0.000000 -7.822577 17.783028
     CHANNELS 3 Yrotation Xrotation Zrotation
     End Site
     {
      OFFSET 0.000000 -1.616737 7.073338
     }
    }
   }
  }
 }
}
MOTION
Frames: 5
Frame Time: 0.008333
348.928285 95.503891 -8.607644 -52.386775 14.374968 2.842748 4.641279 23.424155 4.502424 1.743904 10.464097 1.661148 1.743904 10.464097 1.661148 1.275551 7.852936 1.212227 -2.063035 25.421882 3.207788 -2.995346 1.722984 3.981884 -4.093653 7.005572 3.414252 20.314733 -21.733613 -35.817481 29.840993 -39.725273 -1.040076 32.984305 -4.773607 -39.103148 -3.091559 5.280739 -5.897151 -6.947765 -32.676194 32.624608 -12.041291 -44.235547 -23.490266 -26.277645 -34.961372 42.620116 -24.425875 -27.055840 1.957330 1.677135 24.580855 4.442524 -3.948959 -10.292399 -1.235027 0.017049 0.004025 -0.037930 12.678295 -47.684336 2.745018 0.774627 50.746463 0.831636 3.134339 16.102826 -1.520785 -0.084088 -14.945035 -7.989086
349.250549 95.387383 -8.701118 -52.632771 14.697369 2.969966 4.646998 23.516635 4.564370 1.748078 10.500491 1.691017 1.748078 10.500491 1.691017 1.278027 7.880331 1.234361 -2.145977 25.383481 3.116640 -3.064481 1.674135 3.900765 -4.087123 6.910253 3.181085 20.673580 -21.572315 -36.370384 30.685350 -39.722710 -1.378475 32.683595 -5.068526 -40.394235 -3.073580 5.164440 -5.915573 -8.071948 -32.829159 33.533106 -12.356981 -44.234149 -23.342441 -26.665097 -35.151188 42.554979 -24.499385 -28.037000 1.995007 1.884501 25.344554 4.597217 -3.799159 -10.387180 -1.303685 -0.005566 0.014965 -0.053823 12.392392 -47.765467 2.719385 0.623159 50.630317 0.832900 2.418007 16.757602 -1.759008 0.194082 -17.473458 -8.103488
349.579783 95.260975 -8.792828 -52.932795 15.045145 3.070780 4.673013 23.579817 4.618424 1.752722 10.536617 1.719242 1.752722 10.536617 1.719242 1.280880 7.907523 1.255258 -2.228995 25.321939 3.029023 -3.134313 1.596955 3.823326 -4.073407 6.808376 2.946609 21.029431 -21.421098 -36.961078 31.569572 -39.766696 -1.726832 32.507137 -5.387254 -41.479571 -3.044957 5.049785 -5.927040 -9.309191 -32.929517 34.541149 -12.742934 -44.239734 -23.135584 -27.062485 -35.399742 42.607107 -24.565681 -29.072473 2.095488 2.099908 26.158563 4.730151 -3.665347 -10.469684 -1.375201 0.003822 0.004093 -0.059705 12.235779 -47.828900 2.654432 0.475125 50.446188 0.786411 1.858747 17.349505 -2.045000 0.494746 -20.073558 -8.080718
349.897695 95.124017 -8.858083 -53.222975 15.361995 3.163280 4.668518 23.682620 4.677790 1.756532 10.574314 1.747098 1.756532 10.574314 1.747098 1.283106 7.935889 1.275887 -2.300316 25.258519 2.930255 -3.188611 1.516529 3.730899 -4.054519 6.703616 2.685646 21.418869 -21.272999 -37.604431 32.482683 -39.809440 -2.117049 32.488417 -5.965731 -42.553979 -3.009862 4.918116 -5.967488 -10.651371 -32.952111 35.637586 -13.223407 -44.264447 -22.832571 -27.479766 -35.673230 42.744089 -24.769149 -30.040704 2.212045 2.468488 26.945514 4.926312 -3.509464 -10.586635 -1.432060 -0.028361 0.020826 -0.083863 12.104903 -47.817442 2.575398 0.386335 50.181923 0.728075 1.449602 17.878941 -2.373669 0.806850 -22.736774 -7.949842
350.222714 94.982844 -8.905348 -53.515717 15.715726 3.264440 4.645284 23.755791 4.693952 1.758535 10.610417 1.773801 1.758535 10.610417 1.773801 1.284004 7.963051 1.295688 -2.363634 25.173651 2.840010 -3.235909 1.409855 3.645780 -4.031776 6.590996 2.454098 21.829632 -21.107665 -38.282179 33.446327 -39.856279 -2.549309 32.472923 -6.497379 -43.806998 -2.978411 4.773331 -5.969622 -12.062223 -32.895685 36.785161 -13.745432 -44.288418 -22.456286 -27.925918 -35.966398 42.900902 -25.023710 -31.023907 2.364301 2.937732 27.679638 5.151538 -3.411317 -10.697602 -1.503375 -0.047942 0.059907 -0.089354 12.052771 -47.984737 2.427422 0.368101 50.107596 0.682820 1.076160 18.514213 -2.607532 1.129696 -25.503701 -7.850690
